<svg width="30" height="30" viewBox="0 0 30 30" fill="none" xmlns="http://www.w3.org/2000/svg">
<g id="Call Ringing">
<path id="Layer 6" d="M21.0086 22.2088V22.1998L16.6616 20.3458C16.2742 20.5272 15.9282 20.7861 15.6449 21.1065C15.3616 21.427 15.1471 21.8021 15.0146 22.2088C13.2924 21.7017 11.7247 20.7713 10.4544 19.5026C9.18416 18.2339 8.25185 16.6673 7.74257 14.9458C8.14945 14.8141 8.52526 14.601 8.8471 14.3194C9.16894 14.0378 9.43007 13.6936 9.61457 13.3078L7.75157 8.9428C7.75157 8.94042 7.75062 8.93813 7.74894 8.93644C7.74725 8.93475 7.74496 8.9338 7.74257 8.9338C7.26857 8.78073 6.7651 8.74187 6.27322 8.82041C5.78135 8.89895 5.31501 9.09266 4.91225 9.38574C4.50949 9.67882 4.18172 10.063 3.95568 10.5068C3.72963 10.9507 3.61173 11.4417 3.61157 11.9398C3.61051 15.6919 5.07477 19.296 7.69234 21.9842C10.3099 24.6724 13.8738 26.232 17.6246 26.3308C17.7506 26.3398 17.8856 26.3398 18.0116 26.3398C18.1376 26.3398 18.2726 26.3398 18.3986 26.3308C19.1638 26.2383 19.8685 25.8685 20.3794 25.2913C20.8902 24.7141 21.1717 23.9696 21.1706 23.1988C21.1731 22.862 21.1183 22.5272 21.0086 22.2088ZM15.9659 14.5381C16.0257 14.5381 16.085 14.5262 16.1401 14.503C16.1953 14.4798 16.2453 14.4458 16.2872 14.4031L18.98 11.6563C19.0635 11.571 19.1097 11.4559 19.1085 11.3365C19.1072 11.2171 19.0586 11.1031 18.9732 11.0196C18.931 10.9782 18.881 10.9455 18.8261 10.9235C18.7713 10.9015 18.7126 10.8904 18.6535 10.8911C18.534 10.8923 18.42 10.941 18.3365 11.0263L15.6482 13.7722C15.5861 13.8355 15.5442 13.9157 15.5275 14.0027C15.5109 14.0897 15.5203 14.1798 15.5546 14.2615C15.589 14.3432 15.6466 14.4129 15.7204 14.462C15.7942 14.511 15.8809 14.5372 15.9695 14.5372L15.9659 14.5381ZM16.3817 16.708C16.3817 16.8274 16.4291 16.9418 16.5135 17.0262C16.5979 17.1106 16.7123 17.158 16.8317 17.158H20.4776C20.5969 17.158 20.7114 17.1106 20.7958 17.0262C20.8802 16.9418 20.9276 16.8274 20.9276 16.708C20.9276 16.5887 20.8802 16.4742 20.7958 16.3898C20.7114 16.3054 20.5969 16.258 20.4776 16.258H16.8317C16.7123 16.258 16.5979 16.3054 16.5135 16.3898C16.4291 16.4742 16.3817 16.5887 16.3817 16.708ZM13.2542 13.6498C13.3735 13.6498 13.488 13.6024 13.5724 13.518C13.6568 13.4336 13.7042 13.3192 13.7042 13.1998V9.5539C13.7042 9.43456 13.6568 9.3201 13.5724 9.23571C13.488 9.15131 13.3735 9.1039 13.2542 9.1039C13.1348 9.1039 13.0204 9.15131 12.936 9.23571C12.8516 9.3201 12.8042 9.43456 12.8042 9.5539V13.1998C12.8042 13.3192 12.8516 13.4336 12.936 13.518C13.0204 13.6024 13.1348 13.6498 13.2542 13.6498Z" fill="#094375"/>
</g>
</svg>
