<svg width="315" height="27" viewBox="0 0 315 27" fill="none" xmlns="http://www.w3.org/2000/svg">
<path d="M6.13671 0.259597C8.12082 0.259597 9.88545 0.692259 11.4306 1.55758C12.9758 2.42291 14.1785 3.62138 15.0389 5.153C15.8992 6.68462 16.3294 8.42825 16.3294 10.3839C16.3294 12.3395 15.8992 14.0875 15.0389 15.6277C14.1785 17.168 12.9758 18.3708 11.4306 19.2361C9.88545 20.1015 8.12082 20.5341 6.13671 20.5341H1.36957C0.983278 20.5341 0.658445 20.4043 0.395067 20.1447C0.131689 19.8851 0 19.565 0 19.1842V1.6095C0 1.21145 0.131689 0.886956 0.395067 0.636012C0.658445 0.385069 0.983278 0.259597 1.36957 0.259597H6.13671ZM6.13671 18.1458C7.59406 18.1458 8.89778 17.817 10.0479 17.1594C11.198 16.5017 12.0934 15.5802 12.7343 14.3947C13.3752 13.2092 13.6957 11.8722 13.6957 10.3839C13.6957 8.89552 13.3752 7.56293 12.7343 6.38609C12.0934 5.20925 11.198 4.292 10.0479 3.63436C8.89778 2.97671 7.59406 2.64789 6.13671 2.64789H2.73913V18.1458H6.13671ZM26.8909 6.23033C28.278 6.23033 29.5203 6.53752 30.6177 7.1519C31.7151 7.76628 32.5755 8.61862 33.1988 9.70893C33.8221 10.7992 34.1338 12.0453 34.1338 13.4471C34.1338 14.8316 33.8265 16.0691 33.212 17.1594C32.5974 18.2497 31.7414 19.102 30.644 19.7164C29.5466 20.3308 28.2956 20.638 26.8909 20.638C25.4862 20.638 24.2308 20.3308 23.1246 19.7164C22.0184 19.102 21.158 18.2497 20.5435 17.1594C19.9289 16.0691 19.6217 14.8316 19.6217 13.4471C19.6217 12.0453 19.9289 10.7992 20.5435 9.70893C21.158 8.61862 22.0184 7.76628 23.1246 7.1519C24.2308 6.53752 25.4862 6.23033 26.8909 6.23033ZM26.8909 8.5667C25.9954 8.5667 25.1921 8.77438 24.481 9.18974C23.7699 9.60509 23.2124 10.1849 22.8085 10.929C22.4047 11.6732 22.2028 12.5126 22.2028 13.4471C22.2028 14.3817 22.4047 15.2167 22.8085 15.9522C23.2124 16.6878 23.7699 17.2632 24.481 17.6786C25.1921 18.0939 25.9954 18.3016 26.8909 18.3016C27.7864 18.3016 28.5897 18.0939 29.3008 17.6786C30.0119 17.2632 30.565 16.6878 30.9601 15.9522C31.3551 15.2167 31.5527 14.3817 31.5527 13.4471C31.5527 12.5126 31.3551 11.6732 30.9601 10.929C30.565 10.1849 30.0119 9.60509 29.3008 9.18974C28.5897 8.77438 27.7864 8.5667 26.8909 8.5667ZM53.2814 6.20437C54.8089 6.20437 56.0424 6.6976 56.9818 7.68407C57.9212 8.67054 58.3909 10.0464 58.3909 11.8117V19.2361C58.3909 19.6169 58.268 19.9327 58.0222 20.1837C57.7763 20.4346 57.4515 20.5601 57.0477 20.5601C56.6614 20.5601 56.3409 20.4346 56.0863 20.1837C55.8317 19.9327 55.7044 19.6169 55.7044 19.2361V11.8117C55.7044 10.756 55.4367 9.95555 54.9011 9.41039C54.3656 8.86524 53.6501 8.59266 52.7546 8.59266C51.8416 8.59266 51.0909 8.90418 50.5027 9.52721C49.9145 10.1502 49.6204 10.9463 49.6204 11.9155V19.2361C49.6204 19.6169 49.4975 19.9327 49.2517 20.1837C49.0059 20.4346 48.681 20.5601 48.2772 20.5601C47.8909 20.5601 47.5704 20.4346 47.3158 20.1837C47.0612 19.9327 46.9339 19.6169 46.9339 19.2361V11.8117C46.9339 10.756 46.6662 9.95555 46.1306 9.41039C45.5951 8.86524 44.8796 8.59266 43.9841 8.59266C43.0535 8.59266 42.2941 8.90418 41.7059 9.52721C41.1177 10.1502 40.8236 10.9463 40.8236 11.9155V19.2361C40.8236 19.6169 40.7007 19.9327 40.4549 20.1837C40.209 20.4346 39.8842 20.5601 39.4804 20.5601C39.0941 20.5601 38.7736 20.4346 38.519 20.1837C38.2644 19.9327 38.1371 19.6169 38.1371 19.2361V7.68407C38.1371 7.28602 38.2644 6.96585 38.519 6.72356C38.7736 6.48127 39.0941 6.36013 39.4804 6.36013C39.8666 6.36013 40.1827 6.47695 40.4285 6.71058C40.6743 6.94422 40.806 7.25141 40.8236 7.63215C41.2801 7.18219 41.8244 6.83173 42.4565 6.58079C43.0886 6.32984 43.7734 6.20437 44.5109 6.20437C45.4064 6.20437 46.2097 6.38176 46.9208 6.73654C47.6319 7.09133 48.2157 7.59754 48.6722 8.25519C49.199 7.61485 49.8574 7.11296 50.6476 6.74952C51.4377 6.38609 52.3156 6.20437 53.2814 6.20437ZM69.3737 6.23033C70.7258 6.23033 71.9505 6.54617 73.0479 7.17786C74.1453 7.80954 75.0144 8.67487 75.6553 9.77383C76.2962 10.8728 76.6166 12.0972 76.6166 13.4471V19.2361C76.6166 19.6169 76.4893 19.9327 76.2347 20.1837C75.9801 20.4346 75.6597 20.5601 75.2734 20.5601C74.8871 20.5601 74.5667 20.4346 74.3121 20.1837C74.0575 19.9327 73.9302 19.6169 73.9302 19.2361V18.2756C73.3156 19.0198 72.5694 19.5996 71.6915 20.0149C70.8135 20.4303 69.8654 20.638 68.847 20.638C67.5828 20.638 66.4371 20.3264 65.4099 19.7034C64.3827 19.0804 63.575 18.2194 62.9868 17.1204C62.3986 16.0215 62.1045 14.797 62.1045 13.4471C62.1045 12.0972 62.4206 10.8728 63.0527 9.77383C63.6848 8.67487 64.5583 7.80954 65.6733 7.17786C66.7883 6.54617 68.0217 6.23033 69.3737 6.23033ZM69.3737 18.3016C70.2517 18.3016 71.0462 18.0896 71.7573 17.6656C72.4684 17.2416 73.0259 16.6618 73.4298 15.9263C73.8336 15.1908 74.0355 14.3644 74.0355 13.4471C74.0355 12.5299 73.8336 11.6992 73.4298 10.955C73.0259 10.2108 72.4684 9.62672 71.7573 9.20272C71.0462 8.77871 70.2517 8.5667 69.3737 8.5667C68.4958 8.5667 67.7013 8.77871 66.9902 9.20272C66.2791 9.62672 65.7172 10.2108 65.3046 10.955C64.8919 11.6992 64.6856 12.5299 64.6856 13.4471C64.6856 14.3644 64.8919 15.1908 65.3046 15.9263C65.7172 16.6618 66.2791 17.2416 66.9902 17.6656C67.7013 18.0896 68.4958 18.3016 69.3737 18.3016ZM80.8834 7.65811C80.8834 7.26006 81.0107 6.93989 81.2653 6.6976C81.5199 6.45531 81.8403 6.33417 82.2266 6.33417C82.6304 6.33417 82.9553 6.45531 83.2011 6.6976C83.4469 6.93989 83.5698 7.26006 83.5698 7.65811V19.2102C83.5698 19.5909 83.4469 19.9068 83.2011 20.1577C82.9553 20.4087 82.6304 20.5341 82.2266 20.5341C81.8403 20.5341 81.5199 20.4087 81.2653 20.1577C81.0107 19.9068 80.8834 19.5909 80.8834 19.2102V7.65811ZM82.2266 0.597073C82.7007 0.597073 83.1089 0.765811 83.4513 1.10329C83.7937 1.44076 83.9649 1.84314 83.9649 2.31041C83.9649 2.77769 83.7937 3.18006 83.4513 3.51754C83.1089 3.85502 82.7007 4.02375 82.2266 4.02375C81.7525 4.02375 81.3443 3.85502 81.0019 3.51754C80.6595 3.18006 80.4883 2.77769 80.4883 2.31041C80.4883 1.84314 80.6595 1.44076 81.0019 1.10329C81.3443 0.765811 81.7525 0.597073 82.2266 0.597073ZM95.7379 6.20437C96.9494 6.20437 98.038 6.46397 99.0038 6.98316C99.9695 7.50236 100.725 8.25951 101.269 9.25464C101.813 10.2498 102.085 11.4482 102.085 12.8501V19.2361C102.085 19.6169 101.958 19.9327 101.703 20.1837C101.449 20.4346 101.128 20.5601 100.742 20.5601C100.356 20.5601 100.035 20.4346 99.7807 20.1837C99.5261 19.9327 99.3988 19.6169 99.3988 19.2361V12.8501C99.3988 11.4482 99.0169 10.3882 98.2531 9.66999C97.4893 8.95177 96.4753 8.59266 95.2111 8.59266C94.4737 8.59266 93.802 8.73977 93.1963 9.03398C92.5905 9.32819 92.1164 9.72624 91.774 10.2281C91.4316 10.73 91.2605 11.2925 91.2605 11.9155V19.2361C91.2605 19.6169 91.1375 19.9327 90.8917 20.1837C90.6459 20.4346 90.3211 20.5601 89.9172 20.5601C89.5309 20.5601 89.2105 20.4346 88.9559 20.1837C88.7013 19.9327 88.574 19.6169 88.574 19.2361V7.65811C88.574 7.26006 88.7013 6.93989 88.9559 6.6976C89.2105 6.45531 89.5309 6.33417 89.9172 6.33417C90.3211 6.33417 90.6459 6.45531 90.8917 6.6976C91.1375 6.93989 91.2605 7.26006 91.2605 7.65811V7.94367C91.8223 7.38986 92.4895 6.96153 93.2621 6.65866C94.0347 6.3558 94.8599 6.20437 95.7379 6.20437ZM117.256 19.1842C117.256 19.565 117.129 19.8851 116.874 20.1447C116.619 20.4043 116.29 20.5341 115.886 20.5341C115.5 20.5341 115.175 20.4043 114.912 20.1447C114.648 19.8851 114.517 19.565 114.517 19.1842V1.6095C114.517 1.21145 114.648 0.886956 114.912 0.636012C115.175 0.385069 115.5 0.259597 115.886 0.259597H121.154C122.453 0.259597 123.616 0.545153 124.644 1.11627C125.671 1.68738 126.47 2.48348 127.04 3.50456C127.611 4.52564 127.896 5.68518 127.896 6.98316C127.896 8.24653 127.611 9.37145 127.04 10.3579C126.47 11.3444 125.671 12.1145 124.644 12.6683C123.616 13.2221 122.453 13.499 121.154 13.499H117.256V19.1842ZM121.154 11.0069C122.348 11.0069 123.331 10.6305 124.104 9.87767C124.876 9.12484 125.263 8.16 125.263 6.98316C125.263 5.7544 124.876 4.74197 124.104 3.94588C123.331 3.14978 122.348 2.75173 121.154 2.75173H117.256V11.0069H121.154ZM137.72 6.17841C138.651 6.17841 139.38 6.31686 139.906 6.59377C140.433 6.87067 140.696 7.2168 140.696 7.63215C140.696 7.7533 140.688 7.83983 140.67 7.89175C140.512 8.44556 140.161 8.72246 139.617 8.72246C139.529 8.72246 139.397 8.70515 139.222 8.67054C138.519 8.5494 137.949 8.48882 137.51 8.48882C136.245 8.48882 135.227 8.77438 134.454 9.34549C133.682 9.91661 133.296 10.6867 133.296 11.6559V19.2361C133.296 19.6515 133.186 19.9717 132.966 20.1967C132.747 20.4216 132.418 20.5341 131.979 20.5341C131.557 20.5341 131.232 20.426 131.004 20.2096C130.776 19.9933 130.662 19.6688 130.662 19.2361V7.63215C130.662 7.2168 130.776 6.89663 131.004 6.67164C131.232 6.44666 131.557 6.33417 131.979 6.33417C132.857 6.33417 133.296 6.76683 133.296 7.63215V8.12539C133.822 7.51966 134.472 7.04373 135.245 6.6976C136.017 6.35147 136.842 6.17841 137.72 6.17841ZM143.725 7.65811C143.725 7.26006 143.853 6.93989 144.107 6.6976C144.362 6.45531 144.682 6.33417 145.069 6.33417C145.472 6.33417 145.797 6.45531 146.043 6.6976C146.289 6.93989 146.412 7.26006 146.412 7.65811V19.2102C146.412 19.5909 146.289 19.9068 146.043 20.1577C145.797 20.4087 145.472 20.5341 145.069 20.5341C144.682 20.5341 144.362 20.4087 144.107 20.1577C143.853 19.9068 143.725 19.5909 143.725 19.2102V7.65811ZM145.069 0.597073C145.543 0.597073 145.951 0.765811 146.293 1.10329C146.636 1.44076 146.807 1.84314 146.807 2.31041C146.807 2.77769 146.636 3.18006 146.293 3.51754C145.951 3.85502 145.543 4.02375 145.069 4.02375C144.594 4.02375 144.186 3.85502 143.844 3.51754C143.501 3.18006 143.33 2.77769 143.33 2.31041C143.33 1.84314 143.501 1.44076 143.844 1.10329C144.186 0.765811 144.594 0.597073 145.069 0.597073ZM162.504 6.51589C162.732 6.61972 162.908 6.7625 163.031 6.94422C163.154 7.12594 163.215 7.32929 163.215 7.55427C163.215 7.71003 163.171 7.87444 163.084 8.04751L157.5 19.6515C157.237 20.2226 156.833 20.5082 156.288 20.5082C155.99 20.5082 155.744 20.4433 155.551 20.3135C155.358 20.1837 155.182 19.963 155.024 19.6515L149.441 8.04751C149.37 7.90906 149.335 7.7533 149.335 7.58023C149.335 7.11296 149.581 6.75818 150.073 6.51589C150.231 6.42935 150.415 6.38609 150.626 6.38609C150.837 6.38609 151.038 6.44233 151.232 6.55482C151.425 6.66732 151.574 6.8274 151.679 7.03508L156.262 16.77L160.792 7.03508C160.898 6.8274 161.051 6.66732 161.253 6.55482C161.455 6.44233 161.67 6.38609 161.898 6.38609C162.127 6.38609 162.329 6.42935 162.504 6.51589ZM171.854 6.23033C173.206 6.23033 174.431 6.54617 175.528 7.17786C176.626 7.80954 177.495 8.67487 178.136 9.77383C178.777 10.8728 179.097 12.0972 179.097 13.4471V19.2361C179.097 19.6169 178.97 19.9327 178.715 20.1837C178.461 20.4346 178.14 20.5601 177.754 20.5601C177.367 20.5601 177.047 20.4346 176.792 20.1837C176.538 19.9327 176.411 19.6169 176.411 19.2361V18.2756C175.796 19.0198 175.05 19.5996 174.172 20.0149C173.294 20.4303 172.346 20.638 171.327 20.638C170.063 20.638 168.917 20.3264 167.89 19.7034C166.863 19.0804 166.055 18.2194 165.467 17.1204C164.879 16.0215 164.585 14.797 164.585 13.4471C164.585 12.0972 164.901 10.8728 165.533 9.77383C166.165 8.67487 167.039 7.80954 168.154 7.17786C169.269 6.54617 170.502 6.23033 171.854 6.23033ZM171.854 18.3016C172.732 18.3016 173.527 18.0896 174.238 17.6656C174.949 17.2416 175.506 16.6618 175.91 15.9263C176.314 15.1908 176.516 14.3644 176.516 13.4471C176.516 12.5299 176.314 11.6992 175.91 10.955C175.506 10.2108 174.949 9.62672 174.238 9.20272C173.527 8.77871 172.732 8.5667 171.854 8.5667C170.976 8.5667 170.182 8.77871 169.471 9.20272C168.759 9.62672 168.198 10.2108 167.785 10.955C167.372 11.6992 167.166 12.5299 167.166 13.4471C167.166 14.3644 167.372 15.1908 167.785 15.9263C168.198 16.6618 168.759 17.2416 169.471 17.6656C170.182 18.0896 170.976 18.3016 171.854 18.3016ZM189.237 17.9382C189.553 17.9382 189.821 18.0593 190.04 18.3016C190.26 18.5439 190.37 18.8554 190.37 19.2361C190.37 19.6169 190.225 19.9284 189.935 20.1707C189.645 20.413 189.272 20.5341 188.816 20.5341H188.342C187.481 20.5341 186.695 20.3135 185.984 19.8722C185.273 19.4308 184.716 18.8294 184.312 18.068C183.908 17.3065 183.706 16.4498 183.706 15.4979V9.0859H182.495C182.126 9.0859 181.827 8.98206 181.599 8.77438C181.371 8.5667 181.257 8.30711 181.257 7.99559C181.257 7.64946 181.371 7.37256 181.599 7.16488C181.827 6.9572 182.126 6.85336 182.495 6.85336H183.706V3.11516C183.706 2.73442 183.829 2.4229 184.075 2.18061C184.321 1.93832 184.637 1.81718 185.023 1.81718C185.409 1.81718 185.725 1.93832 185.971 2.18061C186.217 2.4229 186.34 2.73442 186.34 3.11516V6.85336H188.579C188.947 6.85336 189.246 6.9572 189.474 7.16488C189.702 7.37256 189.816 7.64946 189.816 7.99559C189.816 8.30711 189.702 8.5667 189.474 8.77438C189.246 8.98206 188.947 9.0859 188.579 9.0859H186.34V15.4979C186.34 16.1902 186.533 16.77 186.919 17.2372C187.306 17.7045 187.78 17.9382 188.342 17.9382H189.237ZM206.594 13.2135C206.594 13.5423 206.48 13.8149 206.251 14.0312C206.023 14.2476 205.733 14.3557 205.382 14.3557H195.374C195.567 15.5672 196.124 16.545 197.046 17.2892C197.968 18.0333 199.096 18.4054 200.431 18.4054C200.957 18.4054 201.506 18.3102 202.077 18.1199C202.647 17.9295 203.117 17.6959 203.486 17.419C203.732 17.2286 204.021 17.1334 204.355 17.1334C204.689 17.1334 204.952 17.2199 205.145 17.393C205.461 17.6526 205.619 17.9468 205.619 18.2756C205.619 18.5871 205.479 18.8467 205.198 19.0544C204.601 19.5217 203.859 19.9024 202.972 20.1967C202.085 20.4909 201.238 20.638 200.431 20.638C198.991 20.638 197.7 20.3308 196.559 19.7164C195.418 19.102 194.527 18.2497 193.886 17.1594C193.245 16.0691 192.924 14.8316 192.924 13.4471C192.924 12.0626 193.227 10.8209 193.833 9.72191C194.439 8.62295 195.282 7.76628 196.361 7.1519C197.441 6.53752 198.666 6.23033 200.036 6.23033C201.388 6.23033 202.555 6.52454 203.538 7.11296C204.522 7.70138 205.277 8.52344 205.804 9.57913C206.33 10.6348 206.594 11.8463 206.594 13.2135ZM200.036 8.46286C198.754 8.46286 197.713 8.80899 196.915 9.50125C196.116 10.1935 195.611 11.1194 195.4 12.2789H204.171C204.013 11.1194 203.574 10.1935 202.854 9.50125C202.134 8.80899 201.194 8.46286 200.036 8.46286ZM227.216 0C228.551 0 229.705 0.173064 230.68 0.519194C231.654 0.865323 232.642 1.43644 233.643 2.23253C233.853 2.38829 233.994 2.54838 234.064 2.71279C234.134 2.8772 234.169 3.0719 234.169 3.29688C234.169 3.64301 234.042 3.92857 233.787 4.15355C233.533 4.37854 233.239 4.49103 232.905 4.49103C232.571 4.49103 232.264 4.37854 231.983 4.15355C231.263 3.54783 230.561 3.11084 229.876 2.84259C229.191 2.57434 228.305 2.44021 227.216 2.44021C225.847 2.44021 224.587 2.79499 223.437 3.50456C222.287 4.21413 221.374 5.17896 220.698 6.39907C220.022 7.61917 219.684 8.94744 219.684 10.3839C219.684 11.8376 220.022 13.1702 220.698 14.3817C221.374 15.5931 222.287 16.5536 223.437 17.2632C224.587 17.9728 225.847 18.3276 227.216 18.3276C228.902 18.3276 230.517 17.7564 232.062 16.6142C232.361 16.4065 232.651 16.3027 232.931 16.3027C233.265 16.3027 233.542 16.4195 233.761 16.6532C233.981 16.8868 234.09 17.194 234.09 17.5747C234.09 17.9382 233.95 18.2583 233.669 18.5352C231.773 20.0409 229.622 20.7937 227.216 20.7937C225.337 20.7937 223.621 20.3351 222.067 19.4179C220.513 18.5006 219.288 17.2459 218.393 15.6537C217.497 14.0615 217.05 12.3049 217.05 10.3839C217.05 8.48017 217.497 6.73654 218.393 5.153C219.288 3.56946 220.513 2.31474 222.067 1.38884C223.621 0.462948 225.337 0 227.216 0ZM243.677 6.23033C245.029 6.23033 246.254 6.54617 247.351 7.17786C248.449 7.80954 249.318 8.67487 249.959 9.77383C250.6 10.8728 250.92 12.0972 250.92 13.4471V19.2361C250.92 19.6169 250.793 19.9327 250.538 20.1837C250.284 20.4346 249.963 20.5601 249.577 20.5601C249.191 20.5601 248.87 20.4346 248.616 20.1837C248.361 19.9327 248.234 19.6169 248.234 19.2361V18.2756C247.619 19.0198 246.873 19.5996 245.995 20.0149C245.117 20.4303 244.169 20.638 243.15 20.638C241.886 20.638 240.741 20.3264 239.713 19.7034C238.686 19.0804 237.879 18.2194 237.29 17.1204C236.702 16.0215 236.408 14.797 236.408 13.4471C236.408 12.0972 236.724 10.8728 237.356 9.77383C237.988 8.67487 238.862 7.80954 239.977 7.17786C241.092 6.54617 242.325 6.23033 243.677 6.23033ZM243.677 18.3016C244.555 18.3016 245.35 18.0896 246.061 17.6656C246.772 17.2416 247.329 16.6618 247.733 15.9263C248.137 15.1908 248.339 14.3644 248.339 13.4471C248.339 12.5299 248.137 11.6992 247.733 10.955C247.329 10.2108 246.772 9.62672 246.061 9.20272C245.35 8.77871 244.555 8.5667 243.677 8.5667C242.799 8.5667 242.005 8.77871 241.294 9.20272C240.583 9.62672 240.021 10.2108 239.608 10.955C239.195 11.6992 238.989 12.5299 238.989 13.4471C238.989 14.3644 239.195 15.1908 239.608 15.9263C240.021 16.6618 240.583 17.2416 241.294 17.6656C242.005 18.0896 242.799 18.3016 243.677 18.3016ZM262.166 6.23033C263.518 6.23033 264.752 6.54617 265.867 7.17786C266.982 7.80954 267.855 8.67487 268.487 9.77383C269.12 10.8728 269.436 12.0972 269.436 13.4471C269.436 14.797 269.142 16.0215 268.553 17.1204C267.965 18.2194 267.157 19.0804 266.13 19.7034C265.103 20.3264 263.957 20.638 262.693 20.638C261.675 20.638 260.727 20.4303 259.849 20.0149C258.971 19.5996 258.224 19.0198 257.61 18.2756V25.2848C257.61 25.6828 257.487 26.003 257.241 26.2453C256.995 26.4876 256.671 26.6087 256.267 26.6087C255.88 26.6087 255.56 26.4876 255.305 26.2453C255.051 26.003 254.923 25.6828 254.923 25.2848V13.4471C254.923 12.0972 255.244 10.8728 255.885 9.77383C256.526 8.67487 257.395 7.80954 258.492 7.17786C259.59 6.54617 260.814 6.23033 262.166 6.23033ZM262.166 18.3016C263.044 18.3016 263.839 18.0896 264.55 17.6656C265.261 17.2416 265.823 16.6618 266.236 15.9263C266.648 15.1908 266.855 14.3644 266.855 13.4471C266.855 12.5299 266.648 11.6992 266.236 10.955C265.823 10.2108 265.261 9.62672 264.55 9.20272C263.839 8.77871 263.044 8.5667 262.166 8.5667C261.288 8.5667 260.494 8.77871 259.783 9.20272C259.072 9.62672 258.514 10.2108 258.11 10.955C257.707 11.6992 257.505 12.5299 257.505 13.4471C257.505 14.3644 257.707 15.1908 258.11 15.9263C258.514 16.6618 259.072 17.2416 259.783 17.6656C260.494 18.0896 261.288 18.3016 262.166 18.3016ZM273.702 7.65811C273.702 7.26006 273.83 6.93989 274.084 6.6976C274.339 6.45531 274.659 6.33417 275.046 6.33417C275.449 6.33417 275.774 6.45531 276.02 6.6976C276.266 6.93989 276.389 7.26006 276.389 7.65811V19.2102C276.389 19.5909 276.266 19.9068 276.02 20.1577C275.774 20.4087 275.449 20.5341 275.046 20.5341C274.659 20.5341 274.339 20.4087 274.084 20.1577C273.83 19.9068 273.702 19.5909 273.702 19.2102V7.65811ZM275.046 0.597073C275.52 0.597073 275.928 0.765811 276.27 1.10329C276.613 1.44076 276.784 1.84314 276.784 2.31041C276.784 2.77769 276.613 3.18006 276.27 3.51754C275.928 3.85502 275.52 4.02375 275.046 4.02375C274.572 4.02375 274.163 3.85502 273.821 3.51754C273.478 3.18006 273.307 2.77769 273.307 2.31041C273.307 1.84314 273.478 1.44076 273.821 1.10329C274.163 0.765811 274.572 0.597073 275.046 0.597073ZM287.53 17.9382C287.846 17.9382 288.113 18.0593 288.333 18.3016C288.552 18.5439 288.662 18.8554 288.662 19.2361C288.662 19.6169 288.517 19.9284 288.228 20.1707C287.938 20.413 287.565 20.5341 287.108 20.5341H286.634C285.774 20.5341 284.988 20.3135 284.277 19.8722C283.566 19.4308 283.008 18.8294 282.605 18.068C282.201 17.3065 281.999 16.4498 281.999 15.4979V9.0859H280.787C280.418 9.0859 280.12 8.98206 279.892 8.77438C279.663 8.5667 279.549 8.30711 279.549 7.99559C279.549 7.64946 279.663 7.37256 279.892 7.16488C280.12 6.9572 280.418 6.85336 280.787 6.85336H281.999V3.11516C281.999 2.73442 282.122 2.4229 282.367 2.18061C282.613 1.93832 282.929 1.81718 283.316 1.81718C283.702 1.81718 284.018 1.93832 284.264 2.18061C284.51 2.4229 284.633 2.73442 284.633 3.11516V6.85336H286.871C287.24 6.85336 287.538 6.9572 287.767 7.16488C287.995 7.37256 288.109 7.64946 288.109 7.99559C288.109 8.30711 287.995 8.5667 287.767 8.77438C287.538 8.98206 287.24 9.0859 286.871 9.0859H284.633V15.4979C284.633 16.1902 284.826 16.77 285.212 17.2372C285.598 17.7045 286.072 17.9382 286.634 17.9382H287.53ZM298.486 6.23033C299.838 6.23033 301.063 6.54617 302.16 7.17786C303.258 7.80954 304.127 8.67487 304.768 9.77383C305.409 10.8728 305.729 12.0972 305.729 13.4471V19.2361C305.729 19.6169 305.602 19.9327 305.347 20.1837C305.093 20.4346 304.772 20.5601 304.386 20.5601C304 20.5601 303.679 20.4346 303.425 20.1837C303.17 19.9327 303.043 19.6169 303.043 19.2361V18.2756C302.428 19.0198 301.682 19.5996 300.804 20.0149C299.926 20.4303 298.978 20.638 297.959 20.638C296.695 20.638 295.55 20.3264 294.522 19.7034C293.495 19.0804 292.688 18.2194 292.099 17.1204C291.511 16.0215 291.217 14.797 291.217 13.4471C291.217 12.0972 291.533 10.8728 292.165 9.77383C292.797 8.67487 293.671 7.80954 294.786 7.17786C295.901 6.54617 297.134 6.23033 298.486 6.23033ZM298.486 18.3016C299.364 18.3016 300.159 18.0896 300.87 17.6656C301.581 17.2416 302.138 16.6618 302.542 15.9263C302.946 15.1908 303.148 14.3644 303.148 13.4471C303.148 12.5299 302.946 11.6992 302.542 10.955C302.138 10.2108 301.581 9.62672 300.87 9.20272C300.159 8.77871 299.364 8.5667 298.486 8.5667C297.608 8.5667 296.814 8.77871 296.103 9.20272C295.392 9.62672 294.83 10.2108 294.417 10.955C294.004 11.6992 293.798 12.5299 293.798 13.4471C293.798 14.3644 294.004 15.1908 294.417 15.9263C294.83 16.6618 295.392 17.2416 296.103 17.6656C296.814 18.0896 297.608 18.3016 298.486 18.3016ZM309.206 1.55758C309.206 1.17684 309.329 0.865323 309.574 0.623032C309.82 0.380742 310.136 0.259597 310.523 0.259597C310.909 0.259597 311.225 0.380742 311.471 0.623032C311.717 0.865323 311.839 1.17684 311.839 1.55758V15.7316C311.839 16.3719 311.962 16.8998 312.208 17.3151C312.454 17.7305 312.77 17.9382 313.156 17.9382H313.815C314.166 17.9382 314.451 18.0593 314.671 18.3016C314.89 18.5439 315 18.8554 315 19.2361C315 19.6169 314.833 19.9284 314.5 20.1707C314.166 20.413 313.736 20.5341 313.209 20.5341H313.156C312.401 20.5341 311.721 20.3308 311.115 19.9241C310.509 19.5174 310.04 18.9463 309.706 18.2107C309.372 17.4752 309.206 16.6488 309.206 15.7316V1.55758Z" fill="#094375"/>
</svg>
